<svg width="750" height="590" viewBox="0 0 750 590" fill="none" xmlns="http://www.w3.org/2000/svg" xmlns:xlink="http://www.w3.org/1999/xlink">
<path d="M532.128,0.287C473.08,3.343 425.704,30.552 390.198,73.156C388.338,75.474 384.954,75.846 382.636,73.986C382.324,73.742 382.044,73.461 381.8,73.156C344.074,27.887 292.95,0 228.667,0C112.434,0 32,81.56 32,190.838C32,322.174 145.242,451.674 365.716,584.364C378.196,591.878 393.804,591.878 406.284,584.364C626.762,451.674 740,322.184 740,190.838C740,81.556 659.56,0 543.334,0L532.128,0.287Z" fill="#FF0303"/>
<path d="M549.992,414.292L562.006,409.326L549.992,414.292ZM520.938,370.606L509.032,365.384L520.938,370.606ZM531.978,370.722L519.964,375.69L531.978,370.722ZM494.84,404.7L506.912,399.876L494.84,404.7ZM505.906,404.884L517.812,410.104L505.906,404.884ZM449.098,317.8L437.168,312.636L449.098,317.8ZM460.176,317.958L472.248,313.134L460.176,317.958ZM412.776,401.706L424.706,406.87L412.776,401.706ZM323.69,133.992L311.164,130.513L323.69,133.992ZM239.442,395.256L252.096,392.27L239.442,395.256ZM251.064,395.484L238.538,392.004L251.064,395.484ZM198.316,269.017L210.556,273.397L198.316,269.017ZM146.424,414.022L134.184,409.642L146.424,414.022ZM158.664,418.402L210.556,273.397L186.077,264.637L134.184,409.642L158.664,418.402ZM197.153,272.646L226.79,398.242L252.096,392.27L222.458,266.675L197.153,272.646ZM263.59,398.962L336.216,137.471L311.164,130.513L238.538,392.004L263.59,398.962ZM322.678,137.283L388.828,403.898L414.064,397.636L347.912,131.022L322.678,137.283ZM424.706,406.87L461.03,322.964L437.168,312.636L400.846,396.542L424.706,406.87ZM448.104,322.782L482.768,409.524L506.912,399.876L472.248,313.134L448.104,322.782ZM517.812,410.104L532.844,375.826L509.032,365.384L494,399.662L517.812,410.104ZM519.964,375.69L537.978,419.26L562.006,409.326L543.992,365.754L519.964,375.69ZM555.538,431L750,431L750,405L555.538,405L555.538,431ZM140.775,405L0,405L0,431L140.775,431L140.775,405ZM537.978,419.26C540.916,426.366 547.848,431 555.538,431L555.538,405C558.37,405 560.924,406.708 562.006,409.326L537.978,419.26ZM532.844,375.826C530.366,381.476 522.322,381.39 519.964,375.69L543.992,365.754C537.592,350.28 515.758,350.048 509.032,365.384L532.844,375.826ZM482.768,409.524C489.022,425.174 511.044,425.54 517.812,410.104L494,399.662C496.494,393.976 504.608,394.11 506.912,399.876L482.768,409.524ZM461.03,322.964C458.556,328.678 450.414,328.562 448.104,322.782L472.248,313.134C465.978,297.443 443.882,297.129 437.168,312.636L461.03,322.964ZM388.828,403.898C393.206,421.542 417.484,423.554 424.706,406.87L400.846,396.542C403.506,390.394 412.45,391.136 414.064,397.636L388.828,403.898ZM336.216,137.471C334.29,144.405 324.41,144.269 322.678,137.283L347.912,131.022C343.208,112.062 316.392,111.691 311.164,130.513L336.216,137.471ZM226.79,398.242C231.304,417.366 258.33,417.896 263.59,398.962L238.538,392.004C240.476,385.028 250.432,385.224 252.096,392.27L226.79,398.242ZM210.556,273.397C208.208,279.961 198.754,279.431 197.153,272.646L222.458,266.675C218.112,248.258 192.452,246.82 186.077,264.637L210.556,273.397ZM134.184,409.642C135.18,406.858 137.818,405 140.775,405L140.775,431C148.8,431 155.96,425.958 158.664,418.402L134.184,409.642Z" fill="#000000"/>
</svg>
