<svg width="94" height="74" viewBox="0 0 94 74" fill="none" xmlns="http://www.w3.org/2000/svg" xmlns:xlink="http://www.w3.org/1999/xlink">
<path d="M65.766,0.036C58.385,0.418 52.463,3.819 48.025,9.144C47.792,9.434 47.369,9.481 47.079,9.248C47.041,9.218 47.005,9.183 46.975,9.144C42.259,3.486 35.869,0 27.833,0C13.304,0 3.25,10.195 3.25,23.855C3.25,40.272 17.405,56.459 44.965,73.046C46.525,73.985 48.476,73.985 50.035,73.046C77.595,56.459 91.75,40.273 91.75,23.855C91.75,10.195 81.695,0 67.167,0L65.766,0.036Z" fill="#FF0303"/>
<path d="M67.999,51.787L69.501,51.166L67.999,51.787ZM64.367,46.326L62.879,45.673L64.367,46.326ZM65.747,46.34L64.245,46.961L65.747,46.34ZM61.105,50.588L62.614,49.985L61.105,50.588ZM62.488,50.61L63.976,51.263L62.488,50.61ZM55.387,39.725L53.896,39.079L55.387,39.725ZM56.772,39.745L58.281,39.142L56.772,39.745ZM50.847,50.213L52.338,50.859L50.847,50.213ZM39.711,16.749L38.146,16.314L39.711,16.749ZM29.18,49.407L30.762,49.034L29.18,49.407ZM30.633,49.435L29.067,49.001L30.633,49.435ZM24.04,33.627L25.57,34.175L24.04,33.627ZM17.553,51.753L16.023,51.205L17.553,51.753ZM19.083,52.3L25.57,34.175L22.51,33.08L16.023,51.205L19.083,52.3ZM23.894,34.081L27.599,49.78L30.762,49.034L27.057,33.334L23.894,34.081ZM32.199,49.87L41.277,17.184L38.146,16.314L29.067,49.001L32.199,49.87ZM39.585,17.16L47.854,50.487L51.008,49.705L42.739,16.378L39.585,17.16ZM52.338,50.859L56.879,40.371L53.896,39.079L49.356,49.568L52.338,50.859ZM55.263,40.348L59.596,51.191L62.614,49.985L58.281,39.142L55.263,40.348ZM63.976,51.263L65.855,46.978L62.879,45.673L61,49.958L63.976,51.263ZM64.245,46.961L66.497,52.407L69.501,51.166L67.249,45.719L64.245,46.961ZM68.692,53.875L93,53.875L93,50.625L68.692,50.625L68.692,53.875ZM16.847,50.625L-0.75,50.625L-0.75,53.875L16.847,53.875L16.847,50.625ZM66.497,52.407C66.865,53.296 67.731,53.875 68.692,53.875L68.692,50.625C69.046,50.625 69.365,50.838 69.501,51.166L66.497,52.407ZM65.855,46.978C65.546,47.684 64.54,47.674 64.245,46.961L67.249,45.719C66.449,43.785 63.72,43.756 62.879,45.673L65.855,46.978ZM59.596,51.191C60.378,53.147 63.13,53.192 63.976,51.263L61,49.958C61.312,49.247 62.326,49.264 62.614,49.985L59.596,51.191ZM56.879,40.371C56.569,41.085 55.552,41.07 55.263,40.348L58.281,39.142C57.497,37.18 54.735,37.141 53.896,39.079L56.879,40.371ZM47.854,50.487C48.401,52.693 51.435,52.944 52.338,50.859L49.356,49.568C49.688,48.799 50.806,48.892 51.008,49.705L47.854,50.487ZM41.277,17.184C41.036,18.051 39.801,18.034 39.585,17.16L42.739,16.378C42.151,14.008 38.799,13.961 38.146,16.314L41.277,17.184ZM27.599,49.78C28.163,52.171 31.541,52.237 32.199,49.87L29.067,49.001C29.309,48.129 30.554,48.153 30.762,49.034L27.599,49.78ZM25.57,34.175C25.276,34.995 24.094,34.929 23.894,34.081L27.057,33.334C26.514,31.032 23.307,30.853 22.51,33.08L25.57,34.175ZM16.023,51.205C16.148,50.857 16.477,50.625 16.847,50.625L16.847,53.875C17.85,53.875 18.745,53.245 19.083,52.3L16.023,51.205Z" fill="#000000"/>
</svg>
